<svg width="32" height="33" viewBox="0 0 32 33" fill="none" xmlns="http://www.w3.org/2000/svg">
<path d="M28.5714 0.333344H3.42857C1.53571 0.333344 0 1.90105 0 3.83334V29.5C0 31.4323 1.53571 33 3.42857 33H28.5714C30.4643 33 32 31.4323 32 29.5V3.83334C32 1.90105 30.4643 0.333344 28.5714 0.333344ZM19.8071 28.3115C19.2071 28.4208 18.9857 28.0417 18.9857 27.7281C18.9857 27.3344 19 25.3219 19 23.6958C19 22.5583 18.6286 21.8365 18.1929 21.4573C20.8357 21.1583 23.6214 20.7865 23.6214 16.1271C23.6214 14.8 23.1571 14.1365 22.4 13.2833C22.5214 12.9698 22.9286 11.6792 22.2786 10.0021C21.2857 9.68855 19.0143 11.3073 19.0143 11.3073C18.0714 11.0375 17.05 10.899 16.0429 10.899C15.0357 10.899 14.0143 11.0375 13.0714 11.3073C13.0714 11.3073 10.8 9.68855 9.80714 10.0021C9.15714 11.6719 9.55714 12.9625 9.68571 13.2833C8.92857 14.1365 8.57143 14.8 8.57143 16.1271C8.57143 20.7646 11.2357 21.1583 13.8786 21.4573C13.5357 21.7708 13.2286 22.3104 13.1214 23.0833C12.4429 23.3969 10.7071 23.9365 9.67143 22.0698C9.02143 20.9177 7.85 20.8229 7.85 20.8229C6.69286 20.8083 7.77143 21.5667 7.77143 21.5667C8.54286 21.9313 9.08571 23.3313 9.08571 23.3313C9.77857 25.4969 13.0929 24.7677 13.0929 24.7677C13.0929 25.7813 13.1071 27.4292 13.1071 27.7281C13.1071 28.0417 12.8929 28.4208 12.2857 28.3115C7.57143 26.7 4.27143 22.1208 4.27143 16.7688C4.27143 10.075 9.28572 4.99272 15.8429 4.99272C22.4 4.99272 27.7143 10.075 27.7143 16.7688C27.7214 22.1208 24.5214 26.7073 19.8071 28.3115ZM12.8 23.8563C12.6643 23.8854 12.5357 23.8271 12.5214 23.7323C12.5071 23.6229 12.6 23.5281 12.7357 23.499C12.8714 23.4844 13 23.5427 13.0143 23.6375C13.0357 23.7323 12.9429 23.8271 12.8 23.8563ZM12.1214 23.7906C12.1214 23.8854 12.0143 23.9656 11.8714 23.9656C11.7143 23.9802 11.6071 23.9 11.6071 23.7906C11.6071 23.6958 11.7143 23.6156 11.8571 23.6156C11.9929 23.601 12.1214 23.6813 12.1214 23.7906ZM11.1429 23.7104C11.1143 23.8052 10.9714 23.849 10.85 23.8052C10.7143 23.7761 10.6214 23.6667 10.65 23.5719C10.6786 23.4771 10.8214 23.4333 10.9429 23.4625C11.0857 23.5063 11.1786 23.6156 11.1429 23.7104ZM10.2643 23.3167C10.2 23.3969 10.0643 23.3823 9.95714 23.2729C9.85 23.1781 9.82143 23.0396 9.89286 22.974C9.95714 22.8938 10.0929 22.9083 10.2 23.0177C10.2929 23.1125 10.3286 23.2583 10.2643 23.3167ZM9.61429 22.6531C9.55 22.6969 9.42857 22.6531 9.35 22.5438C9.27143 22.4344 9.27143 22.3104 9.35 22.2594C9.42857 22.1938 9.55 22.2448 9.61429 22.3542C9.69286 22.4636 9.69286 22.5948 9.61429 22.6531ZM9.15 21.9458C9.08572 22.0115 8.97857 21.975 8.9 21.9021C8.82143 21.8073 8.80714 21.6979 8.87143 21.6469C8.93571 21.5813 9.04286 21.6177 9.12143 21.6906C9.2 21.7854 9.21429 21.8948 9.15 21.9458ZM8.67143 21.4063C8.64286 21.4719 8.55 21.4865 8.47143 21.4354C8.37857 21.3917 8.33571 21.3115 8.36429 21.2458C8.39286 21.2021 8.47143 21.1802 8.56429 21.2167C8.65714 21.2677 8.7 21.3479 8.67143 21.4063Z" fill="#222021" fill-opacity="0.75"/>
</svg>
