<svg width="33" height="33" viewBox="0 0 33 33" fill="none" xmlns="http://www.w3.org/2000/svg">
<path d="M29.5027 0.333496H4.35985C2.46699 0.333496 0.931274 1.9012 0.931274 3.8335V29.5002C0.931274 31.4325 2.46699 33.0002 4.35985 33.0002H29.5027C31.3956 33.0002 32.9313 31.4325 32.9313 29.5002V3.8335C32.9313 1.9012 31.3956 0.333496 29.5027 0.333496ZM20.7384 28.3116C20.1384 28.421 19.917 28.0418 19.917 27.7283C19.917 27.3345 19.9313 25.322 19.9313 23.696C19.9313 22.5585 19.5598 21.8366 19.1241 21.4575C21.767 21.1585 24.5527 20.7866 24.5527 16.1272C24.5527 14.8002 24.0884 14.1366 23.3313 13.2835C23.4527 12.97 23.8598 11.6793 23.2098 10.0022C22.217 9.6887 19.9456 11.3075 19.9456 11.3075C19.0027 11.0377 17.9813 10.8991 16.9741 10.8991C15.967 10.8991 14.9456 11.0377 14.0027 11.3075C14.0027 11.3075 11.7313 9.6887 10.7384 10.0022C10.0884 11.672 10.4884 12.9627 10.617 13.2835C9.85985 14.1366 9.5027 14.8002 9.5027 16.1272C9.5027 20.7647 12.167 21.1585 14.8098 21.4575C14.467 21.771 14.1598 22.3106 14.0527 23.0835C13.3741 23.397 11.6384 23.9366 10.6027 22.07C9.9527 20.9179 8.78127 20.8231 8.78127 20.8231C7.62413 20.8085 8.7027 21.5668 8.7027 21.5668C9.47413 21.9314 10.017 23.3314 10.017 23.3314C10.7098 25.497 14.0241 24.7679 14.0241 24.7679C14.0241 25.7814 14.0384 27.4293 14.0384 27.7283C14.0384 28.0418 13.8241 28.421 13.217 28.3116C8.5027 26.7002 5.2027 22.121 5.2027 16.7689C5.2027 10.0752 10.217 4.99287 16.7741 4.99287C23.3313 4.99287 28.6456 10.0752 28.6456 16.7689C28.6527 22.121 25.4527 26.7075 20.7384 28.3116ZM13.7313 23.8564C13.5956 23.8856 13.467 23.8272 13.4527 23.7325C13.4384 23.6231 13.5313 23.5283 13.667 23.4991C13.8027 23.4845 13.9313 23.5429 13.9456 23.6377C13.967 23.7325 13.8741 23.8272 13.7313 23.8564ZM13.0527 23.7908C13.0527 23.8856 12.9456 23.9658 12.8027 23.9658C12.6456 23.9804 12.5384 23.9002 12.5384 23.7908C12.5384 23.696 12.6456 23.6158 12.7884 23.6158C12.9241 23.6012 13.0527 23.6814 13.0527 23.7908ZM12.0741 23.7106C12.0456 23.8054 11.9027 23.8491 11.7813 23.8054C11.6456 23.7762 11.5527 23.6668 11.5813 23.572C11.6098 23.4772 11.7527 23.4335 11.8741 23.4627C12.017 23.5064 12.1098 23.6158 12.0741 23.7106ZM11.1956 23.3168C11.1313 23.397 10.9956 23.3825 10.8884 23.2731C10.7813 23.1783 10.7527 23.0397 10.8241 22.9741C10.8884 22.8939 11.0241 22.9085 11.1313 23.0179C11.2241 23.1127 11.2598 23.2585 11.1956 23.3168ZM10.5456 22.6533C10.4813 22.697 10.3598 22.6533 10.2813 22.5439C10.2027 22.4345 10.2027 22.3106 10.2813 22.2595C10.3598 22.1939 10.4813 22.245 10.5456 22.3543C10.6241 22.4637 10.6241 22.595 10.5456 22.6533ZM10.0813 21.946C10.017 22.0116 9.90985 21.9752 9.83127 21.9022C9.7527 21.8075 9.73842 21.6981 9.8027 21.647C9.86699 21.5814 9.97413 21.6179 10.0527 21.6908C10.1313 21.7856 10.1456 21.895 10.0813 21.946ZM9.6027 21.4064C9.57413 21.472 9.48127 21.4866 9.4027 21.4356C9.30985 21.3918 9.26699 21.3116 9.29556 21.246C9.32413 21.2022 9.4027 21.1804 9.49556 21.2168C9.58842 21.2679 9.63128 21.3481 9.6027 21.4064Z" fill="#CECECE"/>
</svg>
