<svg width="32" height="33" viewBox="0 0 32 33" fill="none" xmlns="http://www.w3.org/2000/svg">
<path d="M29.7143 0.666656H2.27857C1.02143 0.666656 0 1.70237 0 2.9738V30.3595C0 31.6309 1.02143 32.6667 2.27857 32.6667H29.7143C30.9714 32.6667 32 31.6309 32 30.3595V2.9738C32 1.70237 30.9714 0.666656 29.7143 0.666656ZM9.67143 28.0952H4.92857V12.8238H9.67857V28.0952H9.67143ZM7.3 10.7381C5.77857 10.7381 4.55 9.50237 4.55 7.98809C4.55 6.4738 5.77857 5.23809 7.3 5.23809C8.81429 5.23809 10.05 6.4738 10.05 7.98809C10.05 9.50951 8.82143 10.7381 7.3 10.7381ZM27.45 28.0952H22.7071V20.6667C22.7071 18.8952 22.6714 16.6167 20.2429 16.6167C17.7714 16.6167 17.3929 18.5452 17.3929 20.5381V28.0952H12.65V12.8238H17.2V14.9095H17.2643C17.9 13.7095 19.45 12.4452 21.7571 12.4452C26.5571 12.4452 27.45 15.6095 27.45 19.7238V28.0952Z" fill="#222021" fill-opacity="0.75"/>
</svg>
