<svg width="32" height="33" viewBox="0 0 32 33" fill="none" xmlns="http://www.w3.org/2000/svg">
<path d="M28.5714 0.666656H3.42857C1.53571 0.666656 0 2.20237 0 4.09523V29.2381C0 31.1309 1.53571 32.6667 3.42857 32.6667H28.5714C30.4643 32.6667 32 31.1309 32 29.2381V4.09523C32 2.20237 30.4643 0.666656 28.5714 0.666656ZM25.0786 12.0095C25.0929 12.2095 25.0929 12.4167 25.0929 12.6167C25.0929 18.8095 20.3786 25.9452 11.7643 25.9452C9.10714 25.9452 6.64286 25.1738 4.57143 23.8452C4.95 23.8881 5.31429 23.9024 5.7 23.9024C7.89286 23.9024 9.90714 23.1595 11.5143 21.9024C9.45714 21.8595 7.72857 20.5095 7.13571 18.6524C7.85714 18.7595 8.50714 18.7595 9.25 18.5667C7.10714 18.1309 5.5 16.2452 5.5 13.9667V13.9095C6.12143 14.2595 6.85 14.4738 7.61429 14.5024C6.97173 14.075 6.44499 13.4951 6.08105 12.8146C5.71711 12.1341 5.52731 11.3741 5.52857 10.6024C5.52857 9.73094 5.75714 8.93094 6.16429 8.23809C8.47143 11.0809 11.9357 12.9381 15.8214 13.1381C15.1571 9.95951 17.5357 7.38094 20.3929 7.38094C21.7429 7.38094 22.9571 7.94523 23.8143 8.85951C24.8714 8.65951 25.8857 8.26666 26.7857 7.73094C26.4357 8.81666 25.7 9.73094 24.7286 10.3095C25.6714 10.2095 26.5857 9.94523 27.4286 9.58094C26.7929 10.5167 25.9929 11.3452 25.0786 12.0095Z" fill="#222021" fill-opacity="0.75"/>
</svg>
