<svg width="33" height="33" viewBox="0 0 33 33" fill="none" xmlns="http://www.w3.org/2000/svg">
<path d="M29.5027 0.666504H4.35985C2.46699 0.666504 0.931274 2.20222 0.931274 4.09508V29.2379C0.931274 31.1308 2.46699 32.6665 4.35985 32.6665H29.5027C31.3956 32.6665 32.9313 31.1308 32.9313 29.2379V4.09508C32.9313 2.20222 31.3956 0.666504 29.5027 0.666504ZM26.0098 12.0094C26.0241 12.2094 26.0241 12.4165 26.0241 12.6165C26.0241 18.8094 21.3098 25.9451 12.6956 25.9451C10.0384 25.9451 7.57413 25.1736 5.5027 23.8451C5.88127 23.8879 6.24556 23.9022 6.63127 23.9022C8.82413 23.9022 10.8384 23.1594 12.4456 21.9022C10.3884 21.8594 8.65985 20.5094 8.06699 18.6522C8.78842 18.7594 9.43842 18.7594 10.1813 18.5665C8.03842 18.1308 6.43127 16.2451 6.43127 13.9665V13.9094C7.0527 14.2594 7.78127 14.4736 8.54556 14.5022C7.90301 14.0748 7.37626 13.495 7.01232 12.8145C6.64839 12.134 6.45858 11.3739 6.45985 10.6022C6.45985 9.73079 6.68842 8.93079 7.09556 8.23793C9.4027 11.0808 12.867 12.9379 16.7527 13.1379C16.0884 9.95936 18.467 7.38079 21.3241 7.38079C22.6741 7.38079 23.8884 7.94508 24.7456 8.85936C25.8027 8.65936 26.817 8.2665 27.717 7.73079C27.367 8.8165 26.6313 9.73079 25.6598 10.3094C26.6027 10.2094 27.517 9.94508 28.3598 9.58079C27.7241 10.5165 26.9241 11.3451 26.0098 12.0094Z" fill="#CECECE"/>
</svg>
